<svg width="1600" height="1100" viewBox="0 0 1600 1100" fill="none" xmlns="http://www.w3.org/2000/svg">
  <defs>
    <linearGradient id="bg" x1="120" y1="90" x2="1450" y2="1040" gradientUnits="userSpaceOnUse">
      <stop stop-color="#E9F2FF"/>
      <stop offset="0.52" stop-color="#EDF9F1"/>
      <stop offset="1" stop-color="#F3F6FF"/>
    </linearGradient>
    <linearGradient id="card" x1="340" y1="290" x2="1100" y2="820" gradientUnits="userSpaceOnUse">
      <stop stop-color="#1B78FF"/>
      <stop offset="1" stop-color="#22C55E"/>
    </linearGradient>
    <linearGradient id="laptop" x1="240" y1="700" x2="1250" y2="760" gradientUnits="userSpaceOnUse">
      <stop stop-color="#2F3F59"/>
      <stop offset="1" stop-color="#1D293D"/>
    </linearGradient>
    <filter id="shadow" x="210" y="190" width="1200" height="760" color-interpolation-filters="sRGB">
      <feFlood flood-opacity="0" result="BackgroundImageFix"/>
      <feColorMatrix in="SourceAlpha" type="matrix" values="0 0 0 0 0 0 0 0 0 0 0 0 0 0 0 0 0 0 127 0" result="hardAlpha"/>
      <feOffset dy="20"/>
      <feGaussianBlur stdDeviation="25"/>
      <feComposite in2="hardAlpha" operator="out"/>
      <feColorMatrix type="matrix" values="0 0 0 0 0.088 0 0 0 0 0.251 0 0 0 0 0.505 0 0 0 0.2 0"/>
      <feBlend mode="normal" in2="BackgroundImageFix" result="effect1_dropShadow_1_2"/>
      <feBlend mode="normal" in="SourceGraphic" in2="effect1_dropShadow_1_2" result="shape"/>
    </filter>
  </defs>

  <rect width="1600" height="1100" rx="60" fill="url(#bg)"/>
  <circle cx="1360" cy="120" r="150" fill="#8BC7FF" fill-opacity="0.28"/>
  <circle cx="230" cy="170" r="180" fill="#72E3AA" fill-opacity="0.2"/>
  <circle cx="1450" cy="940" r="220" fill="#1B78FF" fill-opacity="0.1"/>

  <g filter="url(#shadow)">
    <rect x="280" y="230" width="1020" height="620" rx="40" fill="white"/>
    <rect x="318" y="280" width="945" height="460" rx="26" fill="#EEF4FF"/>
    <rect x="360" y="315" width="450" height="300" rx="24" fill="url(#card)"/>
    <rect x="385" y="350" width="186" height="24" rx="12" fill="white" fill-opacity="0.92"/>
    <rect x="385" y="391" width="290" height="18" rx="9" fill="white" fill-opacity="0.82"/>
    <rect x="385" y="422" width="250" height="18" rx="9" fill="white" fill-opacity="0.72"/>
    <rect x="385" y="454" width="200" height="18" rx="9" fill="white" fill-opacity="0.64"/>
    <rect x="385" y="500" width="130" height="46" rx="14" fill="white"/>
    <circle cx="436" cy="523" r="12" fill="#1B78FF"/>

    <rect x="840" y="315" width="370" height="140" rx="20" fill="white"/>
    <circle cx="890" cy="385" r="28" fill="#D8E9FF"/>
    <path d="M890 368V385L902 394" stroke="#1B78FF" stroke-width="6" stroke-linecap="round" stroke-linejoin="round"/>
    <rect x="940" y="356" width="210" height="18" rx="9" fill="#2F3F59" fill-opacity="0.88"/>
    <rect x="940" y="389" width="160" height="14" rx="7" fill="#9FB4CF"/>

    <rect x="840" y="478" width="370" height="140" rx="20" fill="white"/>
    <rect x="878" y="520" width="60" height="60" rx="16" fill="#E5F6EC"/>
    <path d="M898 552L914 568L944 534" stroke="#22C55E" stroke-width="8" stroke-linecap="round" stroke-linejoin="round"/>
    <rect x="960" y="523" width="210" height="18" rx="9" fill="#2F3F59" fill-opacity="0.88"/>
    <rect x="960" y="556" width="175" height="14" rx="7" fill="#9FB4CF"/>

    <rect x="280" y="770" width="1020" height="44" rx="22" fill="url(#laptop)"/>
  </g>

  <g>
    <rect x="117" y="560" width="220" height="120" rx="22" fill="white" fill-opacity="0.95"/>
    <rect x="145" y="591" width="118" height="14" rx="7" fill="#2F3F59" fill-opacity="0.86"/>
    <rect x="145" y="620" width="160" height="12" rx="6" fill="#9FB4CF"/>
    <rect x="145" y="644" width="130" height="12" rx="6" fill="#BDD0E8"/>
  </g>
</svg>
